<svg width="121" height="22" viewBox="0 0 121 22" fill="none" xmlns="http://www.w3.org/2000/svg">
<path fill-rule="evenodd" clip-rule="evenodd" d="M20.7196 12.5556C20.4043 17.7482 16.0936 21.8626 10.8216 21.8626C5.34439 21.8626 0.904297 17.4224 0.904297 11.9453H7.33961C6.8464 19.2175 17.0594 22.7049 20.7196 12.5556Z" fill="url(#paint0_radial_5742_79445)"/>
<path fill-rule="evenodd" clip-rule="evenodd" d="M8.23408 9.87727C8.54941 4.68466 12.8601 0.570312 18.1321 0.570312C23.6092 0.570312 28.0494 5.01052 28.0494 10.4876H21.6141C22.1073 3.21544 11.8943 -0.27199 8.23408 9.87727Z" fill="url(#paint1_radial_5742_79445)"/>
<path d="M38.4037 16.8699C37.4092 16.8699 36.5318 16.6346 35.7714 16.1641C35.0109 15.6936 34.4162 15.0415 33.9872 14.2079C33.5583 13.3743 33.3438 12.4103 33.3438 11.316C33.3438 10.2215 33.5582 9.25757 33.9872 8.42386C34.4162 7.59027 35.0109 6.93818 35.7714 6.46772C36.5319 5.99726 37.4093 5.76203 38.4037 5.76203C39.4079 5.76203 40.2903 5.99726 41.0507 6.46772C41.8111 6.9383 42.4035 7.59027 42.8275 8.42386C43.2516 9.25745 43.4636 10.2215 43.4636 11.316C43.4636 12.4103 43.2515 13.3743 42.8275 14.2079C42.4034 15.0415 41.8111 15.6936 41.0507 16.1641C40.2902 16.6345 39.4079 16.8699 38.4037 16.8699ZM38.4037 15.0134C39.0277 15.0134 39.5663 14.8626 40.0197 14.5608C40.473 14.2591 40.8265 13.8321 41.08 13.2797C41.3335 12.7273 41.4602 12.0728 41.4602 11.3158C41.4602 10.5487 41.3335 9.8915 41.08 9.34433C40.8265 8.79715 40.473 8.37521 40.0197 8.07851C39.5665 7.78194 39.0277 7.63359 38.4037 7.63359C37.7895 7.63359 37.2534 7.78194 36.7951 8.07851C36.3369 8.37521 35.981 8.79703 35.7275 9.34433C35.474 9.8915 35.3473 10.5487 35.3473 11.3158C35.3473 12.0727 35.474 12.7273 35.7275 13.2797C35.981 13.8321 36.3369 14.2591 36.7951 14.5608C37.2534 14.8626 37.7895 15.0134 38.4037 15.0134Z" fill="url(#paint2_radial_5742_79445)"/>
<path d="M45.6406 16.6857V8.95313H47.3808L47.5271 10.2112C47.7514 9.78164 48.0706 9.43387 48.485 9.16791C48.8993 8.90194 49.3941 8.76908 49.9693 8.76908C50.5836 8.76908 51.1002 8.90206 51.5195 9.16791C51.9388 9.43387 52.2581 9.82254 52.4774 10.3339C52.6968 10.8453 52.8065 11.4743 52.8065 12.2211V16.6857H50.8469V12.4206C50.8469 11.8069 50.7226 11.3364 50.474 11.0091C50.2254 10.6818 49.8428 10.5182 49.326 10.5182C48.9945 10.5182 48.6997 10.6 48.4412 10.7637C48.1828 10.9273 47.9805 11.1601 47.8344 11.4618C47.6881 11.7635 47.615 12.1292 47.615 12.5588V16.6858H45.6407L45.6406 16.6857Z" fill="url(#paint3_radial_5742_79445)"/>
<path d="M57.4141 16.8699C56.673 16.8699 56.0174 16.7036 55.4471 16.3712C54.8767 16.0388 54.4331 15.5734 54.1164 14.9751C53.7994 14.3767 53.6411 13.6837 53.6411 12.8961C53.6411 12.0881 53.797 11.3746 54.109 10.7559C54.4209 10.1371 54.8621 9.65131 55.4324 9.29847C56.0028 8.9455 56.6632 8.7692 57.4139 8.7692C58.1451 8.7692 58.7837 8.93788 59.3296 9.27547C59.8756 9.61307 60.2997 10.0682 60.602 10.641C60.9043 11.2138 61.0553 11.8632 61.0553 12.5895C61.0553 12.6918 61.0553 12.8068 61.0553 12.9347C61.0553 13.0625 61.0455 13.1929 61.026 13.3259H55.0447V12.0679H59.0663C59.0371 11.5667 58.8689 11.1729 58.5618 10.8865C58.2547 10.6001 57.872 10.4569 57.4138 10.4569C57.0824 10.4569 56.7753 10.5362 56.4925 10.6947C56.2098 10.8532 55.988 11.0962 55.8271 11.4234C55.6662 11.7507 55.5858 12.1649 55.5858 12.6661V13.111C55.5858 13.5304 55.6613 13.8961 55.8125 14.208C55.9636 14.52 56.1757 14.7604 56.4486 14.9291C56.7216 15.0978 57.0385 15.1822 57.3992 15.1822C57.7599 15.1822 58.0597 15.1004 58.2986 14.9367C58.5374 14.773 58.7154 14.5634 58.8323 14.3076H60.8504C60.7139 14.7884 60.4847 15.223 60.1631 15.6118C59.8414 16.0005 59.4465 16.3073 58.9786 16.5323C58.5107 16.7573 57.9891 16.8699 57.4138 16.8699H57.4141Z" fill="url(#paint4_radial_5742_79445)"/>
<path d="M68.0794 16.8699C67.3287 16.8699 66.6462 16.7114 66.032 16.3942C65.4178 16.0772 64.9304 15.6015 64.5697 14.9673C64.209 14.3332 64.0286 13.5251 64.0286 12.5433V5.94608H66.0028V12.5587C66.0028 13.0906 66.0857 13.5381 66.2515 13.9011C66.4173 14.2642 66.6586 14.5327 66.9755 14.7066C67.2923 14.8805 67.6702 14.9675 68.1089 14.9675C68.5573 14.9675 68.9401 14.8805 69.2569 14.7066C69.5738 14.5327 69.8151 14.2642 69.9808 13.9011C70.1466 13.5379 70.2294 13.0905 70.2294 12.5587V5.94608H72.2037V12.5433C72.2037 13.5252 72.0184 14.3333 71.6479 14.9673C71.2774 15.6015 70.7778 16.0771 70.1489 16.3942C69.5202 16.7112 68.8303 16.8699 68.0796 16.8699H68.0794Z" fill="url(#paint5_radial_5742_79445)"/>
<path d="M73.7779 16.6857V8.95313H75.5182L75.6645 10.2112C75.8887 9.78164 76.208 9.43387 76.6223 9.16791C77.0366 8.90194 77.5314 8.76908 78.1067 8.76908C78.7209 8.76908 79.2376 8.90206 79.6568 9.16791C80.0761 9.43387 80.3954 9.82254 80.6147 10.3339C80.8341 10.8453 80.9438 11.4743 80.9438 12.2211V16.6857H78.9842V12.4206C78.9842 11.8069 78.8599 11.3364 78.6112 11.0091C78.3626 10.6818 77.98 10.5182 77.4633 10.5182C77.1319 10.5182 76.8369 10.6 76.5785 10.7637C76.3202 10.9273 76.1179 11.1601 75.9716 11.4618C75.8253 11.7635 75.7522 12.1292 75.7522 12.5588V16.6858H73.778L73.7779 16.6857Z" fill="url(#paint6_radial_5742_79445)"/>
<path d="M82.1295 16.6857V8.95313H84.1038V16.6857H82.1295ZM83.1241 7.89447C82.773 7.89447 82.483 7.78448 82.2539 7.56462C82.0249 7.34475 81.9103 7.06608 81.9103 6.72849C81.9103 6.39101 82.0249 6.11222 82.2539 5.89235C82.4831 5.67249 82.7732 5.5625 83.1241 5.5625C83.4848 5.5625 83.7797 5.67249 84.0088 5.89235C84.2379 6.11222 84.3525 6.39101 84.3525 6.72849C84.3525 7.06608 84.2379 7.34475 84.0088 7.56462C83.7797 7.78448 83.4848 7.89447 83.1241 7.89447Z" fill="url(#paint7_radial_5742_79445)"/>
<path d="M87.7287 16.6857L85.0232 8.95313H87.0999L88.9279 14.7373L90.756 8.95313H92.8179L90.1271 16.6857H87.7287Z" fill="url(#paint8_radial_5742_79445)"/>
<path d="M96.6529 16.8699C95.9119 16.8699 95.2563 16.7036 94.6859 16.3712C94.1155 16.0388 93.6719 15.5734 93.3551 14.9751C93.0382 14.3767 92.8798 13.6837 92.8798 12.8961C92.8798 12.0881 93.0358 11.3746 93.3479 10.7559C93.6598 10.1371 94.101 9.65131 94.6713 9.29847C95.2417 8.9455 95.9021 8.7692 96.6528 8.7692C97.384 8.7692 98.0226 8.93788 98.5685 9.27547C99.1145 9.61307 99.5386 10.0682 99.8409 10.641C100.143 11.2138 100.294 11.8632 100.294 12.5895C100.294 12.6918 100.294 12.8068 100.294 12.9347C100.294 13.0625 100.284 13.1929 100.265 13.3259H94.2837V12.0679H98.3054C98.2761 11.5667 98.108 11.1729 97.8008 10.8865C97.4937 10.6001 97.111 10.4569 96.6528 10.4569C96.3214 10.4569 96.0142 10.5362 95.7315 10.6947C95.4487 10.8532 95.227 11.0962 95.0661 11.4234C94.9052 11.7507 94.8248 12.1649 94.8248 12.6661V13.111C94.8248 13.5304 94.9003 13.8961 95.0516 14.208C95.2027 14.52 95.4147 14.7604 95.6877 14.9291C95.9607 15.0978 96.2776 15.1822 96.6383 15.1822C96.999 15.1822 97.2988 15.1004 97.5377 14.9367C97.7766 14.773 97.9544 14.5634 98.0714 14.3076H100.09C99.9532 14.7884 99.724 15.223 99.4024 15.6118C99.0806 16.0005 98.6858 16.3073 98.2179 16.5323C97.7498 16.7573 97.2282 16.8699 96.6529 16.8699Z" fill="url(#paint9_radial_5742_79445)"/>
<path d="M101.28 16.6857V8.95313H103.035L103.225 10.38C103.401 10.0425 103.622 9.7561 103.89 9.52087C104.159 9.28564 104.466 9.10148 104.812 8.9685C105.158 8.83551 105.541 8.76908 105.96 8.76908V10.963H105.287C104.995 10.963 104.724 10.9988 104.476 11.0704C104.227 11.1421 104.01 11.2571 103.825 11.4157C103.64 11.5742 103.498 11.7915 103.401 12.0677C103.303 12.3439 103.254 12.6916 103.254 13.111V16.6858L101.28 16.6857Z" fill="url(#paint10_radial_5742_79445)"/>
<path d="M109.72 16.8699C109.048 16.8699 108.463 16.7573 107.966 16.5323C107.468 16.3073 107.078 15.9954 106.796 15.5964C106.513 15.1976 106.352 14.7475 106.313 14.2463H108.273C108.321 14.4406 108.404 14.617 108.521 14.7756C108.638 14.9341 108.794 15.0594 108.989 15.1514C109.184 15.2435 109.418 15.2895 109.691 15.2895C109.954 15.2895 110.169 15.2511 110.335 15.1744C110.5 15.0977 110.625 14.9929 110.708 14.8598C110.79 14.7268 110.832 14.5887 110.832 14.4456C110.832 14.2308 110.773 14.0645 110.656 13.9469C110.539 13.8293 110.369 13.7347 110.145 13.663C109.92 13.5914 109.647 13.5199 109.325 13.4483C108.975 13.3766 108.631 13.2872 108.295 13.1798C107.958 13.0724 107.658 12.9369 107.395 12.7732C107.132 12.6096 106.922 12.3999 106.766 12.1442C106.61 11.8885 106.532 11.5714 106.532 11.193C106.532 10.7327 106.649 10.3211 106.883 9.95793C107.117 9.5948 107.459 9.30585 107.907 9.09107C108.355 8.87629 108.897 8.76884 109.53 8.76884C110.417 8.76884 111.119 8.97853 111.636 9.39781C112.153 9.81721 112.46 10.395 112.557 11.1315H110.7C110.642 10.8963 110.513 10.7096 110.313 10.5715C110.113 10.4335 109.847 10.3644 109.516 10.3644C109.165 10.3644 108.897 10.4309 108.711 10.5638C108.526 10.6968 108.433 10.8707 108.433 11.0854C108.433 11.2286 108.494 11.3565 108.616 11.469C108.738 11.5816 108.911 11.6762 109.135 11.7529C109.36 11.8296 109.633 11.9038 109.954 11.9754C110.52 12.0982 111.017 12.2388 111.446 12.3974C111.875 12.5559 112.211 12.7809 112.455 13.0724C112.699 13.3639 112.821 13.7859 112.821 14.3382C112.821 14.8292 112.694 15.2665 112.44 15.65C112.187 16.0336 111.829 16.3329 111.366 16.5476C110.903 16.7624 110.354 16.8699 109.72 16.8699Z" fill="url(#paint11_radial_5742_79445)"/>
<path d="M117.263 16.8699C116.522 16.8699 115.867 16.7036 115.296 16.3712C114.726 16.0388 114.282 15.5734 113.966 14.9751C113.649 14.3767 113.49 13.6837 113.49 12.8961C113.49 12.0881 113.646 11.3746 113.958 10.7559C114.27 10.1371 114.711 9.65131 115.282 9.29847C115.852 8.9455 116.513 8.7692 117.263 8.7692C117.994 8.7692 118.633 8.93788 119.179 9.27547C119.725 9.61307 120.149 10.0682 120.451 10.641C120.754 11.2138 120.905 11.8632 120.905 12.5895C120.905 12.6918 120.905 12.8068 120.905 12.9347C120.905 13.0625 120.895 13.1929 120.875 13.3259H114.894V12.0679H118.916C118.887 11.5667 118.718 11.1729 118.411 10.8865C118.104 10.6001 117.722 10.4569 117.263 10.4569C116.932 10.4569 116.625 10.5362 116.342 10.6947C116.059 10.8532 115.838 11.0962 115.677 11.4234C115.516 11.7507 115.435 12.1649 115.435 12.6661V13.111C115.435 13.5304 115.511 13.8961 115.662 14.208C115.813 14.52 116.025 14.7604 116.298 14.9291C116.571 15.0978 116.888 15.1822 117.249 15.1822C117.61 15.1822 117.909 15.1004 118.148 14.9367C118.387 14.773 118.565 14.5634 118.682 14.3076H120.7C120.564 14.7884 120.334 15.223 120.013 15.6118C119.691 16.0005 119.296 16.3073 118.828 16.5323C118.36 16.7573 117.839 16.8699 117.263 16.8699Z" fill="url(#paint12_radial_5742_79445)"/>
<defs>
<radialGradient id="paint0_radial_5742_79445" cx="0" cy="0" r="1" gradientUnits="userSpaceOnUse" gradientTransform="translate(14.4769 11.2164) rotate(90) scale(10.6461 13.5726)">
<stop offset="0.37" stop-color="#154751"/>
<stop offset="1" stop-color="#04171F"/>
</radialGradient>
<radialGradient id="paint1_radial_5742_79445" cx="0" cy="0" r="1" gradientUnits="userSpaceOnUse" gradientTransform="translate(14.4769 11.2164) rotate(90) scale(10.6461 13.5726)">
<stop offset="0.37" stop-color="#154751"/>
<stop offset="1" stop-color="#04171F"/>
</radialGradient>
<radialGradient id="paint2_radial_5742_79445" cx="0" cy="0" r="1" gradientUnits="userSpaceOnUse" gradientTransform="translate(77.1242 11.2162) rotate(90) scale(5.65369 43.7805)">
<stop offset="0.37" stop-color="#154751"/>
<stop offset="1" stop-color="#04171F"/>
</radialGradient>
<radialGradient id="paint3_radial_5742_79445" cx="0" cy="0" r="1" gradientUnits="userSpaceOnUse" gradientTransform="translate(77.1242 11.2162) rotate(90) scale(5.65369 43.7805)">
<stop offset="0.37" stop-color="#154751"/>
<stop offset="1" stop-color="#04171F"/>
</radialGradient>
<radialGradient id="paint4_radial_5742_79445" cx="0" cy="0" r="1" gradientUnits="userSpaceOnUse" gradientTransform="translate(77.1242 11.2162) rotate(90) scale(5.65369 43.7805)">
<stop offset="0.37" stop-color="#154751"/>
<stop offset="1" stop-color="#04171F"/>
</radialGradient>
<radialGradient id="paint5_radial_5742_79445" cx="0" cy="0" r="1" gradientUnits="userSpaceOnUse" gradientTransform="translate(77.1242 11.2162) rotate(90) scale(5.65369 43.7805)">
<stop offset="0.37" stop-color="#154751"/>
<stop offset="1" stop-color="#04171F"/>
</radialGradient>
<radialGradient id="paint6_radial_5742_79445" cx="0" cy="0" r="1" gradientUnits="userSpaceOnUse" gradientTransform="translate(77.1242 11.2162) rotate(90) scale(5.65369 43.7805)">
<stop offset="0.37" stop-color="#154751"/>
<stop offset="1" stop-color="#04171F"/>
</radialGradient>
<radialGradient id="paint7_radial_5742_79445" cx="0" cy="0" r="1" gradientUnits="userSpaceOnUse" gradientTransform="translate(77.1242 11.2162) rotate(90) scale(5.65369 43.7805)">
<stop offset="0.37" stop-color="#154751"/>
<stop offset="1" stop-color="#04171F"/>
</radialGradient>
<radialGradient id="paint8_radial_5742_79445" cx="0" cy="0" r="1" gradientUnits="userSpaceOnUse" gradientTransform="translate(77.1242 11.2162) rotate(90) scale(5.65369 43.7805)">
<stop offset="0.37" stop-color="#154751"/>
<stop offset="1" stop-color="#04171F"/>
</radialGradient>
<radialGradient id="paint9_radial_5742_79445" cx="0" cy="0" r="1" gradientUnits="userSpaceOnUse" gradientTransform="translate(77.1242 11.2162) rotate(90) scale(5.65369 43.7805)">
<stop offset="0.37" stop-color="#154751"/>
<stop offset="1" stop-color="#04171F"/>
</radialGradient>
<radialGradient id="paint10_radial_5742_79445" cx="0" cy="0" r="1" gradientUnits="userSpaceOnUse" gradientTransform="translate(77.1242 11.2162) rotate(90) scale(5.65369 43.7805)">
<stop offset="0.37" stop-color="#154751"/>
<stop offset="1" stop-color="#04171F"/>
</radialGradient>
<radialGradient id="paint11_radial_5742_79445" cx="0" cy="0" r="1" gradientUnits="userSpaceOnUse" gradientTransform="translate(77.1242 11.2162) rotate(90) scale(5.65369 43.7805)">
<stop offset="0.37" stop-color="#154751"/>
<stop offset="1" stop-color="#04171F"/>
</radialGradient>
<radialGradient id="paint12_radial_5742_79445" cx="0" cy="0" r="1" gradientUnits="userSpaceOnUse" gradientTransform="translate(77.1242 11.2162) rotate(90) scale(5.65369 43.7805)">
<stop offset="0.37" stop-color="#154751"/>
<stop offset="1" stop-color="#04171F"/>
</radialGradient>
</defs>
</svg>
