<svg width="19" height="19" viewBox="0 0 19 19" fill="none" xmlns="http://www.w3.org/2000/svg">
<path fill-rule="evenodd" clip-rule="evenodd" d="M4.1005 4.13345C3.83051 4.40245 3.74064 4.63715 3.74173 4.82952C3.74282 5.02189 3.83533 5.25556 4.10835 5.52149C4.38337 5.78936 4.80949 6.05547 5.3809 6.28978C6.52124 6.75737 8.13364 7.05471 9.94186 7.04448C11.7501 7.03425 13.359 6.71868 14.494 6.23822C15.0627 5.99747 15.4858 5.72654 15.7578 5.45558C16.0278 5.18658 16.1176 4.95188 16.1165 4.75951C16.1154 4.56713 16.0229 4.33347 15.7499 4.06754C15.4749 3.79967 15.0488 3.53355 14.4774 3.29925C13.337 2.83166 11.7246 2.53432 9.9164 2.54455C8.10818 2.55478 6.49925 2.87034 5.36427 3.35081C4.79555 3.59156 4.37247 3.86248 4.1005 4.13345ZM17.2401 4.69151C17.2176 4.13338 16.9342 3.65056 16.5349 3.26164C16.123 2.86042 15.5571 2.5261 14.9042 2.25836C13.5958 1.72186 11.8297 1.40871 9.91004 1.41957C7.9904 1.43043 6.22794 1.76355 4.92571 2.31481C4.27581 2.58993 3.71383 2.93063 3.30647 3.33649C2.91161 3.72989 2.63365 4.21589 2.61747 4.77424C2.61683 4.78579 2.61653 4.79744 2.6166 4.80916L2.66782 13.8625C2.67112 14.4451 2.96258 14.9461 3.37659 15.3454C3.78879 15.743 4.35466 16.074 5.00734 16.339C6.31531 16.8701 8.08075 17.1802 9.99915 17.1693C11.9175 17.1585 13.6794 16.8285 14.9812 16.2826C15.6309 16.0102 16.193 15.6728 16.6006 15.2706C17.0101 14.8667 17.2959 14.3623 17.2926 13.7797L17.2414 4.72642C17.2413 4.7147 17.2409 4.70306 17.2401 4.69151ZM16.127 6.61364C15.7849 6.86476 15.3795 7.085 14.9326 7.27421C13.6303 7.82548 11.8679 8.1586 9.94823 8.16946C8.02859 8.18032 6.26248 7.86716 4.95409 7.33067C4.505 7.14652 4.09714 6.93089 3.75222 6.68365L3.75884 7.85291C3.75993 8.04516 3.85243 8.2788 4.12559 8.54477C4.40071 8.81266 4.82698 9.0788 5.39849 9.31312C6.53904 9.78074 8.15145 10.0781 9.95897 10.0679C11.7665 10.0576 13.3754 9.74206 14.5106 9.26156C15.0794 9.02079 15.5027 8.74985 15.7747 8.47886C16.0449 8.20982 16.1347 7.97515 16.1336 7.78289L16.127 6.61364ZM16.1441 9.63677C15.8019 9.88798 15.3963 10.1083 14.9491 10.2976C13.6468 10.8488 11.8843 11.182 9.96533 11.1928C8.04635 11.2037 6.28025 10.8905 4.97172 10.354C4.52244 10.1698 4.11439 9.95411 3.76933 9.70678L3.77594 10.8763C3.77703 11.0686 3.86954 11.3022 4.14269 11.5682C4.41782 11.8361 4.84408 12.1022 5.41559 12.3365C6.55615 12.8041 8.16855 13.1015 9.97607 13.0913C11.7836 13.081 13.3925 12.7654 14.5277 12.285C15.0965 12.0442 15.5198 11.7732 15.7918 11.5023C16.062 11.2332 16.1518 10.9985 16.1507 10.8063L16.1441 9.63677ZM16.1612 12.6602C15.819 12.9114 15.4134 13.1317 14.9662 13.321C13.6639 13.8722 11.9014 14.2054 9.98244 14.2162C8.06345 14.2271 6.29736 13.9139 4.98883 13.3774C4.53955 13.1932 4.1315 12.9775 3.78643 12.7302L3.7928 13.8561C3.79386 14.0427 3.88447 14.2723 4.15756 14.5357C4.43247 14.8008 4.85875 15.0645 5.43059 15.2967C6.57164 15.76 8.18468 16.0546 9.99278 16.0443C11.8009 16.0341 13.4105 15.7213 14.5462 15.2451C15.1154 15.0065 15.5387 14.738 15.8106 14.4698C16.0807 14.2033 16.1687 13.9727 16.1676 13.7861L16.1612 12.6602Z" fill="white"/>
</svg>
