<svg width="19" height="19" viewBox="0 0 19 19" fill="none" xmlns="http://www.w3.org/2000/svg">
<g clip-path="url(#clip0_5780_79453)">
<path fill-rule="evenodd" clip-rule="evenodd" d="M10.6912 2.28651L12.7352 4.22109L12.7288 3.09588C12.7271 2.78522 12.9775 2.53196 13.2881 2.5302L14.9756 2.52066C15.2863 2.5189 15.5395 2.76931 15.5413 3.07996L15.5629 6.89741L18.2161 9.40859C18.4417 9.62214 18.4515 9.97816 18.238 10.2038C18.0244 10.4294 17.6684 10.4392 17.4428 10.2257L16.7028 9.52526L16.7427 16.5734C16.7443 16.8717 16.6274 17.1586 16.4177 17.3707C16.2079 17.5829 15.9224 17.703 15.624 17.7047L12.2491 17.7238C11.9384 17.7256 11.6852 17.4752 11.6834 17.1645L11.6564 12.3833C11.6559 12.3088 11.6259 12.2374 11.5729 12.1849C11.5198 12.1325 11.4481 12.1033 11.3735 12.1037L8.56107 12.1196C8.48648 12.12 8.41512 12.1501 8.36267 12.2031C8.31022 12.2561 8.281 12.3278 8.28142 12.4024L8.30847 17.1836C8.31023 17.4943 8.05982 17.7475 7.74916 17.7493L4.37422 17.7684C4.07585 17.7701 3.78904 17.6532 3.57687 17.4434C3.3647 17.2336 3.24456 16.9481 3.24287 16.6498L3.20299 9.60164L2.47096 10.3104C2.24776 10.5265 1.89165 10.5207 1.67557 10.2975C1.45948 10.0743 1.46524 9.71819 1.68844 9.5021L9.13276 2.29486C9.36089 2.06094 9.67318 1.98833 9.91222 1.98741C10.1503 1.98649 10.4622 2.05615 10.6912 2.28651ZM4.32188 8.51839L4.36785 16.6434L7.18031 16.6275L7.15644 12.4088C7.15433 12.0358 7.30046 11.6773 7.56269 11.4121C7.82491 11.1469 8.18175 10.9967 8.55471 10.9946L11.3672 10.9787C11.7401 10.9766 12.0986 11.1227 12.3638 11.385C12.6291 11.6472 12.7792 12.004 12.7813 12.377L12.8052 16.5957L15.6177 16.5797L15.5717 8.45474L9.92766 3.11283C9.92423 3.11255 9.9205 3.11239 9.91656 3.1124C9.91249 3.11242 9.90865 3.11262 9.90513 3.11295L4.32188 8.51839ZM14.4318 5.82688L14.4195 3.64882L13.857 3.652L13.8663 5.29162L14.4318 5.82688Z" fill="white"/>
</g>
<defs>
<clipPath id="clip0_5780_79453">
<rect width="18" height="18" fill="white" transform="translate(0.904297 0.914062) rotate(-0.324158)"/>
</clipPath>
</defs>
</svg>
