<svg width="19" height="19" viewBox="0 0 19 19" fill="none" xmlns="http://www.w3.org/2000/svg">
<path fill-rule="evenodd" clip-rule="evenodd" d="M13.117 6.03552C13.3531 6.23751 13.3806 6.59259 13.1787 6.82862L9.30887 11.3506C9.20796 11.4685 9.06281 11.5395 8.90778 11.5467C8.75275 11.554 8.60161 11.4969 8.49014 11.3889L6.75089 9.70417C6.52775 9.48802 6.52208 9.13191 6.73822 8.90877C6.95437 8.68563 7.31048 8.67996 7.53362 8.89611L8.84313 10.1646L12.3239 6.09716C12.5259 5.86113 12.881 5.83353 13.117 6.03552Z" fill="white"/>
<path fill-rule="evenodd" clip-rule="evenodd" d="M9.67896 1.46755C9.82577 1.40024 9.99443 1.39929 10.142 1.46493C12.9457 2.71208 14.2034 3.1085 17.3031 3.64644C17.5583 3.69073 17.7503 3.90362 17.7681 4.16206C18.4159 13.5809 10.7879 16.8873 10.2092 17.1242C10.0747 17.1793 9.92407 17.1801 9.78894 17.1266C9.2076 16.8963 1.54269 13.6763 2.08386 4.25079C2.09871 3.99217 2.28827 3.77713 2.54299 3.72995C5.63644 3.15697 6.88954 2.74634 9.67896 1.46755ZM3.18807 4.75327C2.96627 12.429 8.73585 15.4298 9.99265 15.9912C11.243 15.4156 16.9783 12.3498 16.6696 4.677C13.8684 4.17335 12.5124 3.74105 9.91687 2.59567C7.33449 3.77035 5.98346 4.21796 3.18807 4.75327Z" fill="white"/>
</svg>
