<svg width="19" height="19" viewBox="0 0 19 19" fill="none" xmlns="http://www.w3.org/2000/svg">
<path fill-rule="evenodd" clip-rule="evenodd" d="M13.1895 2.0003C13.5228 1.93569 13.8662 1.945 14.1955 2.02759C14.5267 2.11065 14.8355 2.26579 15.0998 2.48193C15.3642 2.69807 15.5775 2.96989 15.7247 3.27799C15.8719 3.58609 15.9493 3.92288 15.9513 4.26433L15.9513 4.26451L15.9543 4.79204C17.0075 4.97456 17.8112 5.88987 17.8174 6.9962L17.8556 13.7461C17.8627 14.9887 16.861 16.0018 15.6184 16.0088L4.36858 16.0724C3.12596 16.0795 2.11292 15.0778 2.10589 13.8352L2.0677 7.08531L2.06769 7.08395L2.06114 5.92532L2.06114 5.92515C2.0578 5.38501 2.24302 4.86062 2.58487 4.44239C2.9268 4.02407 3.404 3.73818 3.93416 3.63403C3.9377 3.63334 3.94125 3.63268 3.94481 3.63205L13.1895 2.0003ZM14.8264 4.27106L14.8291 4.76307L4.30494 4.82261C4.11437 4.82369 3.92948 4.84843 3.75301 4.89403C3.87296 4.8199 4.00594 4.76704 4.14621 4.73889L13.39 3.10729C13.3919 3.10696 13.3938 3.10662 13.3956 3.10627C13.3973 3.10596 13.399 3.10564 13.4007 3.10531C13.5733 3.0714 13.7512 3.07601 13.9218 3.1188C14.0925 3.16159 14.2515 3.24151 14.3877 3.35285C14.5239 3.4642 14.6338 3.60422 14.7096 3.76294C14.7854 3.92161 14.8253 4.09504 14.8264 4.27087L14.8264 4.27106ZM3.23087 13.8288L3.19587 7.64142L3.19268 7.07783C3.18976 6.45703 3.69036 5.95111 4.3113 5.9476L15.5611 5.88395C16.1824 5.88043 16.689 6.38125 16.6925 7.00256L16.7307 13.7525C16.7342 14.3738 16.2333 14.8803 15.612 14.8838L4.36222 14.9475C3.74091 14.951 3.23439 14.4501 3.23087 13.8288ZM13.2794 11.3323C13.4651 11.4549 13.683 11.5197 13.9055 11.5184C14.2038 11.5167 14.4893 11.3966 14.6991 11.1844C14.9089 10.9722 15.0258 10.6854 15.0241 10.3871C15.0228 10.1646 14.9556 9.94743 14.831 9.76312C14.7063 9.57882 14.5298 9.43562 14.3237 9.35164C14.1177 9.26766 13.8914 9.24666 13.6734 9.2913C13.4554 9.33594 13.2556 9.44422 13.0991 9.60244C12.9427 9.76066 12.8367 9.96172 12.7945 10.1802C12.7523 10.3987 12.7759 10.6247 12.8622 10.8298C12.9485 11.0349 13.0937 11.2098 13.2794 11.3323Z" fill="white"/>
</svg>
