<svg width="19" height="19" viewBox="0 0 19 19" fill="none" xmlns="http://www.w3.org/2000/svg">
<path fill-rule="evenodd" clip-rule="evenodd" d="M8.03331 2.65969C7.77575 2.55471 7.49285 2.52846 7.22037 2.58426C6.9479 2.64006 6.69809 2.77541 6.50254 2.97319C6.30699 3.17097 6.17447 3.42229 6.12176 3.69538C6.06904 3.96847 6.09849 4.25105 6.20638 4.50741C6.31426 4.76376 6.49575 4.98236 6.72787 5.13557C6.96 5.28878 7.23235 5.36972 7.51047 5.36814L8.9167 5.36019L8.90874 3.95396C8.90717 3.67583 8.82316 3.40442 8.66733 3.17404C8.5115 2.94366 8.29086 2.76467 8.03331 2.65969ZM9.46223 2.35981C9.19544 2.03347 8.85051 1.77792 8.45794 1.6179C7.99434 1.42894 7.48511 1.38169 6.99466 1.48214C6.5042 1.58258 6.05455 1.82621 5.70255 2.18221C5.35056 2.53821 5.11204 2.99059 5.01715 3.48215C4.92226 3.97371 4.97527 4.48236 5.16946 4.9438C5.23409 5.09735 5.31338 5.24338 5.40582 5.38005L3.85428 5.38883C2.92232 5.3941 2.17108 6.15388 2.17636 7.08585L2.1859 8.77332C2.19006 9.50806 2.66317 10.1305 3.31989 10.3584L3.34589 14.9544C3.34927 15.5511 3.58955 16.122 4.01389 16.5416C4.43823 16.9612 5.01186 17.195 5.60858 17.1916L13.4835 17.147C14.0802 17.1437 14.6511 16.9034 15.0707 16.479C15.4903 16.0547 15.7241 15.4811 15.7207 14.8843L15.6947 10.2884C16.3488 10.053 16.8148 9.42531 16.8107 8.69058L16.8011 7.00311C16.7958 6.07114 16.0361 5.31991 15.1041 5.32518L13.5526 5.33396C13.6434 5.19625 13.7211 5.04933 13.784 4.89506C13.9729 4.43146 14.0202 3.92223 13.9197 3.43178C13.8193 2.94132 13.5757 2.49167 13.2197 2.13968C12.8637 1.78768 12.4113 1.54916 11.9197 1.45427C11.4282 1.35938 10.9195 1.41239 10.4581 1.60659C10.0673 1.77103 9.72531 2.03047 9.46223 2.35981ZM10.048 6.4788L10.064 9.29126L15.1264 9.26262C15.437 9.26086 15.6874 9.0076 15.6857 8.69694L15.6761 7.00947C15.6744 6.69882 15.4211 6.4484 15.1105 6.45016L10.048 6.4788ZM8.93898 9.29762L8.92306 6.48517L3.86065 6.51381C3.54999 6.51557 3.29958 6.76883 3.30134 7.07948L3.31088 8.76696C3.31264 9.07761 3.5659 9.32802 3.87656 9.32626L8.93898 9.29762ZM8.94534 10.4226L8.97717 16.0475L5.60222 16.0666C5.30386 16.0683 5.01704 15.9514 4.80487 15.7416C4.5927 15.5318 4.47256 15.2464 4.47087 14.948L4.44541 10.4481L8.94534 10.4226ZM10.1021 16.0412L10.0703 10.4162L14.5703 10.3908L14.5957 14.8907C14.5974 15.1891 14.4805 15.4759 14.2707 15.6881C14.0609 15.9002 13.7755 16.0204 13.4771 16.0221L10.1021 16.0412ZM10.0417 5.35382L11.4479 5.34587C11.726 5.34429 11.9974 5.26028 12.2278 5.10445C12.4582 4.94863 12.6372 4.72799 12.7422 4.47043C12.8472 4.21287 12.8734 3.92997 12.8176 3.65749C12.7618 3.38502 12.6265 3.13521 12.4287 2.93966C12.2309 2.74411 11.9796 2.6116 11.7065 2.55888C11.4334 2.50616 11.1508 2.53561 10.8945 2.6435C10.6381 2.75139 10.4195 2.93287 10.2663 3.165C10.1131 3.39712 10.0322 3.66947 10.0337 3.94759L10.0417 5.35382Z" fill="white"/>
</svg>
