<svg width="19" height="19" viewBox="0 0 19 19" fill="none" xmlns="http://www.w3.org/2000/svg">
<path fill-rule="evenodd" clip-rule="evenodd" d="M5.42013 3.13252C5.41837 2.82186 5.66878 2.5686 5.97944 2.56684L13.8543 2.52229C14.165 2.52053 14.4182 2.77094 14.42 3.0816C14.4217 3.39225 14.1713 3.64551 13.8607 3.64727L5.9858 3.69183C5.67515 3.69358 5.42189 3.44317 5.42013 3.13252ZM4.20739 7.07694C3.9575 7.07835 3.75608 7.28207 3.75749 7.53195L3.79693 14.5019C3.79834 14.7518 4.00206 14.9532 4.25194 14.9518L15.7218 14.8869C15.9717 14.8855 16.1731 14.6818 16.1717 14.4319L16.1323 7.46194C16.1309 7.21206 15.9272 7.01063 15.6773 7.01205L4.20739 7.07694ZM2.63251 7.53832C2.62758 6.66713 3.32983 5.95689 4.20102 5.95196L15.6709 5.88707C16.5421 5.88214 17.2523 6.58438 17.2573 7.45558L17.2967 14.4255C17.3016 15.2967 16.5994 16.007 15.7282 16.0119L4.25831 16.0768C3.38711 16.0817 2.67687 15.3795 2.67195 14.5083L2.63251 7.53832ZM4.864 4.26068C4.55335 4.26244 4.30294 4.5157 4.30469 4.82635C4.30645 5.13701 4.55971 5.38742 4.87037 5.38566L14.9952 5.32838C15.3059 5.32662 15.5563 5.07336 15.5545 4.76271C15.5528 4.45205 15.2995 4.20164 14.9888 4.2034L4.864 4.26068Z" fill="white"/>
</svg>
