<svg width="19" height="19" viewBox="0 0 19 19" fill="none" xmlns="http://www.w3.org/2000/svg">
<path d="M10.6007 17.556L7.59492 17.573C7.59141 17.573 7.58789 17.5731 7.58437 17.5731C7.13434 17.5686 6.75641 17.2578 6.66251 16.8189C6.65894 16.8084 6.65886 16.7943 6.65528 16.7838L6.41023 15.1047L6.40672 15.1047C6.11765 14.9657 5.83549 14.8056 5.57076 14.6208L3.99587 15.266C3.99236 15.266 3.98886 15.2696 3.98535 15.2696C3.55736 15.4337 3.07479 15.2712 2.837 14.8753C2.83698 14.8718 2.83347 14.8718 2.83345 14.8683L1.31407 12.2753C1.07979 11.8793 1.16833 11.3726 1.52173 11.0753C1.52523 11.0717 1.52873 11.0682 1.53222 11.0646L2.8692 10.0024L2.86567 9.99888C2.85061 9.82318 2.84268 9.66502 2.84181 9.51034C2.84091 9.35214 2.84705 9.1939 2.86016 9.02507L1.51831 7.98499C1.51126 7.98151 1.50773 7.97802 1.50417 7.97101C1.15446 7.67767 1.06373 7.17544 1.29001 6.7804L2.77995 4.17037C2.77993 4.16685 2.78345 4.16683 2.78343 4.16332C3.01675 3.76824 3.49742 3.59677 3.92724 3.75606C3.93075 3.75604 3.93429 3.75953 3.9378 3.75951L5.5199 4.3869C5.78604 4.20258 6.06286 4.03929 6.35034 3.89704L6.57636 2.21175C6.57632 2.20472 6.57979 2.19767 6.57977 2.19415C6.65107 1.74726 7.03592 1.4146 7.48936 1.40149C7.49288 1.40147 7.4964 1.40145 7.49991 1.40143L10.5057 1.38443C10.5092 1.38441 10.5128 1.38439 10.5163 1.38437C10.9663 1.38885 11.3442 1.69961 11.4381 2.13854C11.4417 2.14907 11.4418 2.16313 11.4454 2.17365L11.6904 3.85276L11.6939 3.85274C11.983 3.99174 12.2652 4.15186 12.5299 4.33669L14.1048 3.69145C14.1083 3.69143 14.1118 3.68789 14.1153 3.68787C14.5433 3.52021 15.0258 3.68623 15.2636 4.08216C15.2637 4.08568 15.2672 4.08566 15.2672 4.08917L16.7866 6.68218C17.0209 7.07813 16.9323 7.58489 16.5789 7.8822C16.5754 7.88574 16.5719 7.88927 16.5684 7.89281L15.2314 8.95508C15.2315 8.95859 15.2315 8.96211 15.2315 8.96211C15.2466 9.14132 15.2545 9.29948 15.2553 9.44362L15.2553 9.44714C15.2562 9.60534 15.2501 9.76709 15.2369 9.92537L16.5858 10.9689C16.5894 10.9724 16.5929 10.9759 16.5964 10.9794C16.9532 11.2727 17.0474 11.7749 16.8177 12.177L15.3277 14.787C15.3277 14.7906 15.3242 14.7906 15.3242 14.7941C15.0909 15.1892 14.6103 15.3606 14.1804 15.2014C14.1769 15.2014 14.1734 15.1979 14.1699 15.1979L12.5878 14.5705C12.3216 14.7548 12.0448 14.9181 11.7573 15.0604L11.5313 16.7457C11.5314 16.7527 11.5279 16.7597 11.5279 16.7633C11.4531 17.2102 11.0682 17.5428 10.6148 17.5559C10.6078 17.556 10.6042 17.556 10.6007 17.556ZM7.74324 16.4472L10.4362 16.4319L10.642 14.9085C10.6926 14.539 10.9229 14.2178 11.2594 14.0507C11.4978 13.9333 11.7256 13.7984 11.9427 13.6495C12.2509 13.4333 12.6479 13.3854 13.0037 13.524L14.4343 14.089L15.7641 11.7576L14.2952 10.6233C14.1363 10.5011 14.0543 10.3012 14.0813 10.1042C14.1117 9.88955 14.1245 9.66799 14.1268 9.45001C14.1261 9.33399 14.1184 9.20747 14.107 9.05988C14.0697 8.68039 14.2293 8.31035 14.5268 8.07311L15.7343 7.11353L14.3782 4.79734L12.9541 5.37845C12.6034 5.52106 12.2059 5.48112 11.8918 5.26493C11.6765 5.11497 11.4472 4.98267 11.211 4.87151C10.8726 4.7117 10.6352 4.39312 10.5769 4.02079L10.3574 2.51028L7.66448 2.52552L7.45864 4.04897C7.40799 4.41841 7.17778 4.73964 6.84122 4.90678C6.60281 5.02414 6.37506 5.15903 6.15793 5.30792C5.84977 5.52412 5.45277 5.57207 5.0969 5.43345L3.67337 4.86845L2.34357 7.19984L3.55478 8.14222C3.85494 8.37607 4.01521 8.7408 3.98572 9.12066C3.97243 9.25784 3.96963 9.38442 3.97033 9.50747C3.971 9.627 3.97875 9.75352 3.99011 9.8976C4.02741 10.2771 3.8713 10.6471 3.57381 10.8843L2.36633 11.8439L3.72243 14.1601L5.14299 13.579C5.49375 13.4364 5.89125 13.4764 6.20537 13.6925C6.42067 13.8425 6.64994 13.9748 6.88612 14.086C7.22453 14.2458 7.46188 14.5644 7.52024 14.9367L7.74324 16.4472ZM9.06975 12.2912C8.97835 12.2917 8.8834 12.2887 8.79194 12.2787C8.04271 12.2091 7.36918 11.8508 6.88778 11.2734C6.40639 10.696 6.18077 9.96606 6.25036 9.21683C6.3928 7.67264 7.76801 6.53281 9.3122 6.67525C10.6418 6.80132 11.706 7.85704 11.8471 9.18165C11.8657 9.36436 11.8668 9.55069 11.8503 9.73711C11.7143 11.1899 10.4971 12.2831 9.06975 12.2912ZM9.03726 7.79127C8.64703 7.79348 8.27514 7.92918 7.97069 8.18052C7.62426 8.46725 7.40859 8.87277 7.36895 9.323C7.32579 9.77326 7.46185 10.2084 7.75211 10.5584C8.03884 10.9048 8.44437 11.1205 8.8946 11.1601C9.81971 11.2463 10.6455 10.5631 10.7317 9.63445C10.7416 9.52541 10.741 9.41291 10.7298 9.30399C10.6445 8.50641 10.0045 7.87369 9.20605 7.79735C9.14978 7.79415 9.09351 7.79096 9.03726 7.79127Z" fill="white"/>
</svg>
