<svg width="19" height="19" viewBox="0 0 19 19" fill="none" xmlns="http://www.w3.org/2000/svg">
<path d="M16.4473 14.514L16.4192 14.5141L16.3911 14.5108C16.2961 14.5008 16.201 14.4802 16.1094 14.442L14.1121 13.7467L14.098 13.7397C14.0557 13.7224 14.0099 13.7121 13.9607 13.7124C13.915 13.7126 13.8729 13.7199 13.8308 13.7377C13.7852 13.7556 13.3467 13.9233 12.8904 14.0524C12.6411 14.1206 11.7776 14.3505 11.085 14.3545C9.30965 14.3645 7.64645 13.6919 6.40196 12.4614C5.16809 11.2414 4.48389 9.6175 4.47409 7.88433C4.47158 7.44137 4.51827 6.99461 4.61074 6.56166C4.91204 5.13259 5.72383 3.83071 6.89276 2.89244C8.07217 1.94357 9.57391 1.41826 11.1137 1.40955C12.9489 1.39917 14.6649 2.0926 15.9412 3.35805C17.1504 4.55709 17.8167 6.13538 17.8192 7.80883C17.8262 9.05334 17.4639 10.2613 16.7737 11.3023L16.7563 11.3305C16.7423 11.3482 16.7319 11.3658 16.7179 11.3835C16.7005 11.4117 16.6901 11.4364 16.6831 11.454L17.2462 13.4161C17.2677 13.4827 17.2786 13.553 17.2861 13.6233L17.2863 13.6655C17.2889 14.1295 16.9114 14.5113 16.4473 14.514ZM14.5069 12.6933L16.0181 13.2191L15.577 11.6782C15.5052 11.422 15.5598 11.1334 15.7444 10.8159L15.7478 10.8089C15.7792 10.7595 15.8106 10.7101 15.8454 10.6607C16.4067 9.81021 16.6999 8.82416 16.6942 7.80816C16.6899 6.43707 16.1412 5.13937 15.1477 4.15357C14.0835 3.10137 12.6529 2.52586 11.1201 2.53453C8.501 2.54935 6.22243 4.34118 5.70544 6.79453C5.63011 7.15004 5.5935 7.51588 5.59555 7.87798C5.61234 10.8451 8.06932 13.2465 11.0751 13.2295C11.5146 13.227 12.1642 13.0897 12.5854 12.9713C12.9996 12.8565 13.4101 12.6995 13.4276 12.6923C13.596 12.6281 13.7716 12.5955 13.9544 12.5944C14.1407 12.5899 14.3272 12.624 14.5069 12.6933Z" fill="white"/>
<path d="M3.52487 17.2027C3.33152 17.2038 3.14482 17.1381 2.99297 17.0194L2.98238 17.0124C2.74573 16.8169 2.63497 16.5046 2.69305 16.2055C2.79204 15.6811 2.99674 14.5795 3.07178 14.1713C3.07178 14.1713 3.07178 14.1713 3.07176 14.1678C2.47973 13.2992 2.14349 12.2816 2.09187 11.2342C2.04022 10.1833 2.28393 9.14127 2.78848 8.21731C2.93812 7.94575 3.27857 7.84539 3.55364 7.99501C3.82519 8.14464 3.92556 8.4851 3.77594 8.76017C2.94427 10.2766 3.02846 12.1078 4.00338 13.5402L4.00692 13.5437C4.13811 13.7398 4.26248 13.9747 4.20429 14.2528C4.19062 14.3231 4.03362 15.1572 3.89376 15.9139L5.39159 15.3183C5.66169 15.2113 5.96053 15.2131 6.23187 15.3241C6.87311 15.5701 7.54181 15.6964 8.16055 15.6929C8.16406 15.6929 8.16406 15.6929 8.16758 15.6929C9.0535 15.6878 9.92755 15.4473 10.6914 15C10.9577 14.8439 11.3028 14.9333 11.4625 15.1996C11.6187 15.4659 11.5292 15.8109 11.263 15.9707C10.3274 16.5209 9.26025 16.8117 8.17746 16.8178C8.17394 16.8178 8.17394 16.8178 8.17043 16.8179C7.41106 16.8222 6.60159 16.6685 5.82645 16.3706L5.81235 16.3636L3.8515 17.1446C3.75331 17.1874 3.64796 17.2091 3.53898 17.2097C3.52839 17.2027 3.52839 17.2027 3.52487 17.2027Z" fill="white"/>
</svg>
