<svg width="20" height="19" viewBox="0 0 20 19" fill="none" xmlns="http://www.w3.org/2000/svg">
<g clip-path="url(#clip0_5780_46948)">
<path d="M11.1509 9.16452C13.0071 9.15402 14.6354 7.39751 14.785 5.24859C14.8598 4.16885 14.5131 3.16533 13.8163 2.42043C13.123 1.68606 12.161 1.28368 11.1063 1.28965C10.0446 1.29566 9.08361 1.7054 8.40575 2.44401C7.72089 3.18969 7.38911 4.20057 7.47262 5.28996C7.64297 7.43708 9.29111 9.17504 11.1509 9.16452ZM9.23273 3.20575C9.69746 2.70038 10.3674 2.41885 11.1127 2.41463C11.8509 2.41045 12.5205 2.68441 12.9944 3.1915C13.4755 3.70558 13.715 4.40736 13.6631 5.17407C13.5558 6.72158 12.4031 8.03594 11.148 8.04304C9.88945 8.05016 8.72191 6.74893 8.60066 5.20272C8.5365 4.42611 8.76101 3.71819 9.23273 3.20575Z" fill="white"/>
<path d="M18.4787 15.5848C18.1741 13.9412 17.2381 12.5648 15.7772 11.6028C14.4786 10.7488 12.8377 10.2834 11.1572 10.293C9.47678 10.3025 7.84122 10.7863 6.55236 11.655C5.10241 12.6335 4.18211 14.0204 3.89611 15.6673C3.82793 16.0439 3.92144 16.416 4.15151 16.6889C4.36387 16.9409 4.66701 17.0798 5.00802 17.0779L17.3828 17.0078C17.7203 17.0059 18.0218 16.8636 18.2314 16.6128C18.4583 16.3338 18.5476 15.9606 18.4787 15.5848ZM17.3694 15.8794L5.00866 15.9493C5.00153 15.9318 4.99786 15.9037 5.00463 15.8579C5.53242 12.8279 8.56908 11.4291 11.1636 11.4144C13.7581 11.3997 16.8104 12.7641 17.3724 15.788C17.3797 15.8336 17.3763 15.8618 17.3694 15.8794Z" fill="white"/>
<path d="M4.68856 10.3261L4.68061 8.91988L6.08684 8.91192C6.39621 8.91017 6.64789 8.65562 6.64614 8.34625C6.64439 8.03688 6.38984 7.78519 6.08047 7.78694L4.67424 7.79489L4.66629 6.38867C4.66454 6.0793 4.40998 5.82761 4.10061 5.82936C3.79124 5.83111 3.53956 6.08566 3.54131 6.39503L3.54926 7.80126L2.14303 7.80921C1.83366 7.81096 1.58197 8.06552 1.58373 8.37489C1.58548 8.68426 1.84003 8.93595 2.1494 8.9342L3.55563 8.92624L3.56358 10.3325C3.56533 10.6418 3.81989 10.8935 4.12926 10.8918C4.43863 10.89 4.69031 10.6355 4.68856 10.3261Z" fill="white"/>
</g>
<defs>
<clipPath id="clip0_5780_46948">
<rect width="18" height="18" fill="white" transform="translate(0.974609 0.21875) rotate(-0.324158)"/>
</clipPath>
</defs>
</svg>
