<svg width="19" height="19" viewBox="0 0 19 19" fill="none" xmlns="http://www.w3.org/2000/svg">
<path d="M12.7653 9.28C12.0411 9.2841 11.3432 8.96461 10.7915 8.38412C10.2574 7.81761 9.92613 7.05658 9.86528 6.2448C9.80062 5.38031 10.0598 4.58078 10.5944 3.99767C11.129 3.41807 11.8866 3.09738 12.7303 3.0926C13.567 3.08787 14.3282 3.40349 14.8693 3.977C15.4176 4.5575 15.6857 5.35053 15.6273 6.20868C15.5721 7.02112 15.253 7.78583 14.7254 8.35835C14.1838 8.94854 13.4895 9.27591 12.7653 9.28ZM12.7367 4.21758C12.2093 4.22057 11.7428 4.41305 11.4249 4.75939C11.0964 5.11633 10.948 5.59882 10.9898 6.15758C11.0316 6.71282 11.2525 7.23189 11.6133 7.61306C11.9458 7.96626 12.3547 8.15731 12.759 8.15502C13.1668 8.15271 13.5699 7.95355 13.8984 7.60013C14.2548 7.2149 14.4699 6.69688 14.5054 6.13769C14.541 5.59607 14.38 5.10127 14.0475 4.75158C13.7256 4.40184 13.257 4.21464 12.7367 4.21758Z" fill="white"/>
<path d="M17.4338 15.4413L8.16681 15.4937C7.86096 15.4954 7.57893 15.3599 7.39126 15.1219C7.19649 14.8734 7.12427 14.5363 7.1998 14.2159C7.48838 13.026 8.21757 12.0375 9.30356 11.3528C10.2669 10.7462 11.499 10.4087 12.7682 10.4016C14.0619 10.3942 15.266 10.7038 16.2432 11.2995C17.3404 11.9648 18.0807 12.952 18.3828 14.1527C18.462 14.4721 18.3936 14.81 18.2016 15.0607C18.0202 15.3008 17.7397 15.4395 17.4338 15.4413ZM8.32568 14.3678L17.2658 14.3172C16.674 12.2463 14.4937 11.5203 12.7781 11.53C11.0695 11.5397 8.90104 12.2903 8.32568 14.3678Z" fill="white"/>
<path d="M6.12168 9.45815C4.8842 9.46515 3.79139 8.3217 3.68144 6.90902C3.62461 6.18511 3.84583 5.51588 4.30007 5.02112C4.75083 4.5334 5.38564 4.26262 6.08875 4.25864C6.78835 4.25468 7.4262 4.52178 7.88247 5.00788C8.34581 5.50097 8.57459 6.16765 8.52591 6.88513C8.43897 8.29541 7.35565 9.45116 6.12168 9.45815ZM6.09861 5.38009C5.7119 5.38227 5.36817 5.52485 5.13056 5.78284C4.88596 6.0479 4.77198 6.40714 4.80596 6.8218C4.87038 7.6441 5.46845 8.33682 6.11532 8.33316C6.76218 8.3295 7.35589 7.63004 7.40749 6.80708C7.43332 6.40263 7.31173 6.03769 7.06766 5.77539C6.82713 5.51659 6.48181 5.37792 6.09861 5.38009Z" fill="white"/>
<path d="M6.39563 14.3786L2.44764 14.4009C2.16991 14.4025 1.91256 14.2774 1.73909 14.0639C1.56203 13.8399 1.497 13.5309 1.56568 13.2422C1.80271 12.26 2.40281 11.448 3.29614 10.8874C4.08438 10.3943 5.0883 10.1179 6.12188 10.1121C7.0078 10.1071 7.76448 10.2504 8.43417 10.5525C8.71615 10.681 8.8446 11.0143 8.71612 11.2962C8.58763 11.5782 8.25437 11.7067 7.97239 11.5782C7.45427 11.3456 6.85245 11.233 6.13176 11.237C4.84857 11.2443 3.23092 11.7878 2.72606 13.2778L6.38928 13.2571C6.69865 13.2553 6.95321 13.507 6.95496 13.8164C6.95671 14.1258 6.705 14.3768 6.39563 14.3786Z" fill="white"/>
</svg>
