<svg width="19" height="19" viewBox="0 0 19 19" fill="none" xmlns="http://www.w3.org/2000/svg">
<path fill-rule="evenodd" clip-rule="evenodd" d="M3.64738 4.13345C3.37738 4.40245 3.28752 4.63715 3.28861 4.82952C3.2897 5.02189 3.38221 5.25556 3.65523 5.52149C3.93024 5.78936 4.35636 6.05547 4.92777 6.28978C6.06812 6.75737 7.68051 7.05471 9.48874 7.04448C11.297 7.03425 12.9059 6.71868 14.0409 6.23822C14.6096 5.99747 15.0327 5.72654 15.3046 5.45558C15.5746 5.18658 15.6645 4.95188 15.6634 4.75951C15.6623 4.56713 15.5698 4.33347 15.2968 4.06754C15.0218 3.79967 14.5957 3.53355 14.0242 3.29925C12.8839 2.83166 11.2715 2.53432 9.46328 2.54455C7.65505 2.55478 6.04613 2.87034 4.91114 3.35081C4.34242 3.59156 3.91934 3.86248 3.64738 4.13345ZM16.787 4.69151C16.7645 4.13338 16.481 3.65056 16.0817 3.26164C15.6698 2.86042 15.104 2.5261 14.4511 2.25836C13.1427 1.72186 11.3765 1.40871 9.45691 1.41957C7.53728 1.43043 5.77482 1.76355 4.47258 2.31481C3.82269 2.58993 3.2607 2.93063 2.85335 3.33649C2.45849 3.72989 2.18053 4.21589 2.16434 4.77424C2.1637 4.78579 2.16341 4.79744 2.16347 4.80916L2.2147 13.8625C2.21799 14.4451 2.50945 14.9461 2.92347 15.3454C3.33567 15.743 3.90154 16.074 4.55421 16.339C5.86218 16.8701 7.62762 17.1802 9.54602 17.1693C11.4644 17.1585 13.2262 16.8285 14.5281 16.2826C15.1777 16.0102 15.7398 15.6728 16.1475 15.2706C16.557 14.8667 16.8428 14.3623 16.8395 13.7797L16.7882 4.72642C16.7882 4.7147 16.7877 4.70306 16.787 4.69151ZM15.6739 6.61364C15.3318 6.86476 14.9264 7.085 14.4794 7.27421C13.1772 7.82548 11.4147 8.1586 9.4951 8.16946C7.57547 8.18032 5.80935 7.86716 4.50096 7.33067C4.05188 7.14652 3.64402 6.93089 3.2991 6.68365L3.30571 7.85291C3.3068 8.04516 3.39931 8.2788 3.67246 8.54477C3.94759 8.81266 4.37385 9.0788 4.94536 9.31312C6.08592 9.78074 7.69832 10.0781 9.50584 10.0679C11.3134 10.0576 12.9223 9.74206 14.0575 9.26156C14.6263 9.02079 15.0495 8.74985 15.3216 8.47886C15.5917 8.20982 15.6816 7.97515 15.6805 7.78289L15.6739 6.61364ZM15.691 9.63677C15.3488 9.88798 14.9432 10.1083 14.496 10.2976C13.1936 10.8488 11.4312 11.182 9.51221 11.1928C7.59322 11.2037 5.82712 10.8905 4.5186 10.354C4.06931 10.1698 3.66127 9.95411 3.3162 9.70678L3.32282 10.8763C3.32391 11.0686 3.41642 11.3022 3.68957 11.5682C3.96469 11.8361 4.39096 12.1022 4.96247 12.3365C6.10302 12.8041 7.71543 13.1015 9.52295 13.0913C11.3305 13.081 12.9394 12.7654 14.0746 12.285C14.6434 12.0442 15.0666 11.7732 15.3387 11.5023C15.6088 11.2332 15.6987 10.9985 15.6976 10.8063L15.691 9.63677ZM15.7081 12.6602C15.3659 12.9114 14.9603 13.1317 14.5131 13.321C13.2107 13.8722 11.4483 14.2054 9.52931 14.2162C7.61033 14.2271 5.84423 13.9139 4.5357 13.3774C4.08642 13.1932 3.67837 12.9775 3.33331 12.7302L3.33968 13.8561C3.34073 14.0427 3.43134 14.2723 3.70444 14.5357C3.97935 14.8008 4.40562 15.0645 4.97746 15.2967C6.11852 15.76 7.73155 16.0546 9.53966 16.0443C11.3478 16.0341 12.9574 15.7213 14.0931 15.2451C14.6623 15.0065 15.0855 14.738 15.3574 14.4698C15.6275 14.2033 15.7155 13.9727 15.7145 13.7861L15.7081 12.6602Z" fill="#373737"/>
</svg>
