<svg width="19" height="19" viewBox="0 0 19 19" fill="none" xmlns="http://www.w3.org/2000/svg">
<path fill-rule="evenodd" clip-rule="evenodd" d="M10.2381 1.71619L12.2821 3.65078L12.2757 2.52556C12.274 2.21491 12.5244 1.96165 12.835 1.95989L14.5225 1.95034C14.8331 1.94859 15.0864 2.199 15.0882 2.50965L15.1098 6.3271L17.763 8.83828C17.9886 9.05183 17.9984 9.40785 17.7849 9.63348C17.5713 9.8591 17.2153 9.86889 16.9897 9.65535L16.2496 8.95495L16.2895 16.0031C16.2912 16.3014 16.1743 16.5882 15.9645 16.8004C15.7547 17.0126 15.4693 17.1327 15.1709 17.1344L11.796 17.1535C11.4853 17.1553 11.232 16.9049 11.2303 16.5942L11.2032 11.813C11.2028 11.7384 11.1728 11.6671 11.1197 11.6146C11.0667 11.5622 10.995 11.533 10.9204 11.5334L8.10795 11.5493C8.03336 11.5497 7.96199 11.5797 7.90954 11.6328C7.8571 11.6858 7.82787 11.7575 7.82829 11.8321L7.85534 16.6133C7.8571 16.924 7.60669 17.1772 7.29604 17.179L3.92109 17.1981C3.62273 17.1998 3.33591 17.0828 3.12374 16.8731C2.91158 16.6633 2.79143 16.3778 2.78974 16.0794L2.74987 9.03133L2.01783 9.74005C1.79464 9.95614 1.43853 9.95038 1.22244 9.72718C1.00636 9.50399 1.01212 9.14788 1.23531 8.93179L8.67963 1.72455C8.90776 1.49063 9.22006 1.41802 9.45909 1.4171C9.69715 1.41618 10.0091 1.48583 10.2381 1.71619ZM3.86876 7.94807L3.91473 16.0731L6.72718 16.0572L6.70331 11.8385C6.7012 11.4655 6.84733 11.107 7.10956 10.8418C7.37179 10.5766 7.72863 10.4264 8.10158 10.4243L10.914 10.4084C11.287 10.4063 11.6455 10.5524 11.9107 10.8146C12.1759 11.0769 12.3261 11.4337 12.3282 11.8067L12.3521 16.0253L15.1645 16.0094L15.1186 7.88443L9.47453 2.54252C9.4711 2.54223 9.46738 2.54207 9.46344 2.54209C9.45937 2.5421 9.45552 2.54231 9.452 2.54263L3.86876 7.94807ZM13.9787 5.25657L13.9664 3.07851L13.4039 3.08169L13.4132 4.72131L13.9787 5.25657Z" fill="#373737"/>
</svg>
