<svg width="19" height="19" viewBox="0 0 19 19" fill="none" xmlns="http://www.w3.org/2000/svg">
<path fill-rule="evenodd" clip-rule="evenodd" d="M12.6639 6.03552C12.8999 6.23751 12.9275 6.59259 12.7255 6.82862L8.85575 11.3506C8.75484 11.4685 8.60969 11.5395 8.45466 11.5467C8.29963 11.554 8.14849 11.4969 8.03701 11.3889L6.29776 9.70417C6.07462 9.48802 6.06895 9.13191 6.2851 8.90877C6.50124 8.68563 6.85735 8.67996 7.08049 8.89611L8.39 10.1646L11.8708 6.09716C12.0728 5.86113 12.4279 5.83353 12.6639 6.03552Z" fill="#373737"/>
<path fill-rule="evenodd" clip-rule="evenodd" d="M9.22584 1.46755C9.37265 1.40024 9.5413 1.39929 9.68887 1.46493C12.4926 2.71208 13.7502 3.1085 16.85 3.64644C17.1052 3.69073 17.2972 3.90362 17.315 4.16206C17.9628 13.5809 10.3348 16.8873 9.75607 17.1242C9.62156 17.1793 9.47095 17.1801 9.33582 17.1266C8.75447 16.8963 1.08956 13.6763 1.63074 4.25079C1.64559 3.99217 1.83515 3.77713 2.08987 3.72995C5.18331 3.15697 6.43642 2.74634 9.22584 1.46755ZM2.73495 4.75327C2.51314 12.429 8.28273 15.4298 9.53953 15.9912C10.7899 15.4156 16.5252 12.3498 16.2165 4.677C13.4152 4.17335 12.0592 3.74105 9.46374 2.59567C6.88137 3.77035 5.53034 4.21796 2.73495 4.75327Z" fill="#373737"/>
</svg>
