<svg width="19" height="19" viewBox="0 0 19 19" fill="none" xmlns="http://www.w3.org/2000/svg">
<path fill-rule="evenodd" clip-rule="evenodd" d="M12.7325 2.0042C13.0657 1.9396 13.4092 1.9489 13.7385 2.0315C14.0697 2.11456 14.3785 2.2697 14.6428 2.48584C14.9071 2.70198 15.1205 2.9738 15.2677 3.2819C15.4149 3.59 15.4923 3.92679 15.4943 4.26824L15.4943 4.26842L15.4973 4.79595C16.5505 4.97846 17.3542 5.89378 17.3604 7.00011L17.3986 13.75C17.4056 14.9926 16.404 16.0057 15.1614 16.0127L3.91155 16.0763C2.66893 16.0834 1.65589 15.0817 1.64886 13.8391L1.61067 7.08921L1.61066 7.08785L1.60411 5.92923L1.60411 5.92906C1.60077 5.38892 1.78599 4.86453 2.12784 4.4463C2.46977 4.02797 2.94697 3.74208 3.47712 3.63794C3.48067 3.63724 3.48422 3.63658 3.48777 3.63595L12.7325 2.0042ZM14.3693 4.27496L14.3721 4.76698L3.8479 4.82652C3.65734 4.8276 3.47244 4.85234 3.29598 4.89793C3.41593 4.82381 3.54891 4.77094 3.68918 4.7428L12.933 3.1112C12.9349 3.11087 12.9367 3.11053 12.9386 3.11018C12.9403 3.10987 12.942 3.10954 12.9436 3.10921C13.1162 3.07531 13.2942 3.07991 13.4648 3.1227C13.6354 3.16549 13.7945 3.24541 13.9307 3.35676C14.0668 3.4681 14.1768 3.60813 14.2526 3.76685C14.3284 3.92551 14.3682 4.09894 14.3693 4.27478L14.3693 4.27496ZM2.77384 13.8327L2.73883 7.64532L2.73565 7.08174C2.73273 6.46093 3.23333 5.95501 3.85427 5.9515L15.1041 5.88785C15.7254 5.88434 16.2319 6.38516 16.2354 7.00647L16.2736 13.7564C16.2771 14.3777 15.7763 14.8842 15.155 14.8877L3.90519 14.9514C3.28388 14.9549 2.77736 14.4541 2.77384 13.8327ZM12.8224 11.3363C13.0081 11.4588 13.2259 11.5236 13.4484 11.5223C13.7468 11.5206 14.0323 11.4005 14.2421 11.1883C14.4518 10.9761 14.5687 10.6893 14.5671 10.391C14.5658 10.1685 14.4986 9.95133 14.3739 9.76703C14.2493 9.58273 14.0728 9.43953 13.8667 9.35555C13.6607 9.27156 13.4343 9.25056 13.2164 9.29521C12.9984 9.33985 12.7985 9.44813 12.6421 9.60635C12.4857 9.76457 12.3796 9.96563 12.3375 10.1841C12.2953 10.4026 12.3189 10.6286 12.4052 10.8337C12.4915 11.0388 12.6367 11.2137 12.8224 11.3363Z" fill="#373737"/>
</svg>
