<svg width="19" height="19" viewBox="0 0 19 19" fill="none" xmlns="http://www.w3.org/2000/svg">
<path fill-rule="evenodd" clip-rule="evenodd" d="M8.48643 3.23C8.22887 3.12502 7.94597 3.09877 7.6735 3.15457C7.40102 3.21038 7.15121 3.34572 6.95566 3.5435C6.76011 3.74128 6.6276 3.9926 6.57488 4.26569C6.52217 4.53878 6.55161 4.82137 6.6595 5.07772C6.76739 5.33407 6.94887 5.55267 7.181 5.70588C7.41313 5.85909 7.68547 5.94003 7.9636 5.93846L9.36982 5.9305L9.36187 4.52427C9.3603 4.24615 9.27628 3.97473 9.12046 3.74435C8.96463 3.51398 8.74399 3.33498 8.48643 3.23ZM9.91536 2.93012C9.64857 2.60378 9.30364 2.34823 8.91106 2.18821C8.44746 1.99925 7.93824 1.952 7.44778 2.05245C6.95733 2.15289 6.50767 2.39652 6.15568 2.75252C5.80369 3.10852 5.56516 3.5609 5.47027 4.05246C5.37539 4.54402 5.42839 5.05268 5.62259 5.51411C5.68721 5.66766 5.76651 5.81369 5.85895 5.95036L4.30741 5.95914C3.37544 5.96441 2.62421 6.7242 2.62948 7.65616L2.63903 9.34363C2.64318 10.0784 3.11629 10.7008 3.77301 10.9287L3.79902 15.5247C3.80239 16.1214 4.04268 16.6923 4.46702 17.1119C4.89135 17.5315 5.46498 17.7653 6.06171 17.7619L13.9366 17.7174C14.5333 17.714 15.1043 17.4737 15.5238 17.0494C15.9434 16.625 16.1772 16.0514 16.1738 15.4547L16.1478 10.8587C16.8019 10.6233 17.2679 9.99563 17.2638 9.26089L17.2542 7.57342C17.249 6.64145 16.4892 5.89022 15.5572 5.89549L14.0057 5.90427C14.0966 5.76656 14.1742 5.61965 14.2371 5.46537C14.4261 5.00177 14.4733 4.49255 14.3729 4.00209C14.2724 3.51164 14.0288 3.06198 13.6728 2.70999C13.3168 2.358 12.8644 2.11947 12.3728 2.02458C11.8813 1.92969 11.3726 1.9827 10.9112 2.1769C10.5205 2.34134 10.1784 2.60078 9.91536 2.93012ZM10.5012 7.04912L10.5171 9.86157L15.5795 9.83293C15.8902 9.83117 16.1406 9.57791 16.1388 9.26726L16.1293 7.57978C16.1275 7.26913 15.8742 7.01872 15.5636 7.02047L10.5012 7.04912ZM9.3921 9.86794L9.37619 7.05548L4.31377 7.08412C4.00312 7.08588 3.7527 7.33914 3.75446 7.6498L3.76401 9.33727C3.76577 9.64792 4.01903 9.89834 4.32968 9.89658L9.3921 9.86794ZM9.39847 10.9929L9.43029 16.6178L6.05534 16.6369C5.75698 16.6386 5.47017 16.5217 5.258 16.3119C5.04583 16.1021 4.92569 15.8167 4.924 15.5183L4.89854 11.0184L9.39847 10.9929ZM10.5553 16.6115L10.5234 10.9866L15.0234 10.9611L15.0488 15.461C15.0505 15.7594 14.9336 16.0462 14.7238 16.2584C14.5141 16.4705 14.2286 16.5907 13.9302 16.5924L10.5553 16.6115ZM10.4948 5.92413L11.901 5.91618C12.1792 5.9146 12.4506 5.83059 12.681 5.67477C12.9113 5.51894 13.0903 5.2983 13.1953 5.04074C13.3003 4.78318 13.3265 4.50028 13.2707 4.22781C13.2149 3.95533 13.0796 3.70552 12.8818 3.50997C12.684 3.31442 12.4327 3.18191 12.1596 3.12919C11.8865 3.07648 11.6039 3.10592 11.3476 3.21381C11.0912 3.3217 10.8726 3.50318 10.7194 3.73531C10.5662 3.96744 10.4853 4.23978 10.4869 4.51791L10.4948 5.92413Z" fill="#373737"/>
</svg>
