<svg width="19" height="19" viewBox="0 0 19 19" fill="none" xmlns="http://www.w3.org/2000/svg">
<path fill-rule="evenodd" clip-rule="evenodd" d="M4.96407 3.13252C4.96232 2.82186 5.21273 2.5686 5.52338 2.56684L13.3983 2.52229C13.7089 2.52053 13.9622 2.77094 13.9639 3.0816C13.9657 3.39225 13.7153 3.64551 13.4046 3.64727L5.52975 3.69183C5.21909 3.69358 4.96583 3.44317 4.96407 3.13252ZM3.75133 7.07694C3.50145 7.07835 3.30002 7.28207 3.30144 7.53195L3.34087 14.5019C3.34229 14.7518 3.546 14.9532 3.79589 14.9518L15.2658 14.8869C15.5157 14.8855 15.7171 14.6818 15.7157 14.4319L15.6762 7.46194C15.6748 7.21206 15.4711 7.01063 15.2212 7.01205L3.75133 7.07694ZM2.17646 7.53832C2.17153 6.66713 2.87377 5.95689 3.74497 5.95196L15.2149 5.88707C16.0861 5.88214 16.7963 6.58438 16.8012 7.45558L16.8407 14.4255C16.8456 15.2967 16.1433 16.007 15.2721 16.0119L3.80225 16.0768C2.93106 16.0817 2.22082 15.3795 2.21589 14.5083L2.17646 7.53832ZM4.40795 4.26068C4.09729 4.26244 3.84688 4.5157 3.84864 4.82635C3.8504 5.13701 4.10366 5.38742 4.41431 5.38566L14.5392 5.32838C14.8498 5.32662 15.1002 5.07336 15.0985 4.76271C15.0967 4.45205 14.8434 4.20164 14.5328 4.2034L4.40795 4.26068Z" fill="#373737"/>
</svg>
