<svg width="19" height="19" viewBox="0 0 19 19" fill="none" xmlns="http://www.w3.org/2000/svg">
<path d="M10.6007 17.3685L7.59492 17.3855C7.59141 17.3855 7.58789 17.3856 7.58437 17.3856C7.13434 17.3811 6.75641 17.0703 6.66251 16.6314C6.65894 16.6209 6.65886 16.6068 6.65528 16.5963L6.41023 14.9172L6.40672 14.9172C6.11765 14.7782 5.83549 14.6181 5.57076 14.4333L3.99587 15.0785C3.99236 15.0785 3.98886 15.0821 3.98535 15.0821C3.55736 15.2462 3.07479 15.0837 2.837 14.6878C2.83698 14.6843 2.83347 14.6843 2.83345 14.6808L1.31407 12.0878C1.07979 11.6918 1.16833 11.1851 1.52173 10.8878C1.52523 10.8842 1.52873 10.8807 1.53222 10.8771L2.8692 9.81488L2.86567 9.81138C2.85061 9.63568 2.84268 9.47752 2.84181 9.32284C2.84091 9.16464 2.84705 9.0064 2.86016 8.83757L1.51831 7.79749C1.51126 7.79401 1.50773 7.79052 1.50417 7.78351C1.15446 7.49017 1.06373 6.98794 1.29001 6.5929L2.77995 3.98287C2.77993 3.97935 2.78345 3.97933 2.78343 3.97582C3.01675 3.58074 3.49742 3.40927 3.92724 3.56856C3.93075 3.56854 3.93429 3.57203 3.9378 3.57201L5.5199 4.1994C5.78604 4.01508 6.06286 3.85179 6.35034 3.70954L6.57636 2.02425C6.57632 2.01722 6.57979 2.01017 6.57977 2.00665C6.65107 1.55976 7.03592 1.2271 7.48936 1.21399C7.49288 1.21397 7.4964 1.21395 7.49991 1.21393L10.5057 1.19693C10.5092 1.19691 10.5128 1.19689 10.5163 1.19687C10.9663 1.20135 11.3442 1.51211 11.4381 1.95104C11.4417 1.96157 11.4418 1.97563 11.4454 1.98615L11.6904 3.66526L11.6939 3.66524C11.983 3.80424 12.2652 3.96436 12.5299 4.14919L14.1048 3.50395C14.1083 3.50393 14.1118 3.50039 14.1153 3.50037C14.5433 3.33271 15.0258 3.49873 15.2636 3.89466C15.2637 3.89818 15.2672 3.89816 15.2672 3.90167L16.7866 6.49468C17.0209 6.89063 16.9323 7.39739 16.5789 7.6947C16.5754 7.69824 16.5719 7.70177 16.5684 7.70531L15.2314 8.76758C15.2315 8.77109 15.2315 8.77461 15.2315 8.77461C15.2466 8.95382 15.2545 9.11198 15.2553 9.25612L15.2553 9.25964C15.2562 9.41784 15.2501 9.57959 15.2369 9.73787L16.5858 10.7814C16.5894 10.7849 16.5929 10.7884 16.5964 10.7919C16.9532 11.0852 17.0474 11.5874 16.8177 11.9895L15.3277 14.5995C15.3277 14.6031 15.3242 14.6031 15.3242 14.6066C15.0909 15.0017 14.6103 15.1731 14.1804 15.0139C14.1769 15.0139 14.1734 15.0104 14.1699 15.0104L12.5878 14.383C12.3216 14.5673 12.0448 14.7306 11.7573 14.8729L11.5313 16.5582C11.5314 16.5652 11.5279 16.5722 11.5279 16.5758C11.4531 17.0227 11.0682 17.3553 10.6148 17.3684C10.6078 17.3685 10.6042 17.3685 10.6007 17.3685ZM7.74324 16.2597L10.4362 16.2444L10.642 14.721C10.6926 14.3515 10.9229 14.0303 11.2594 13.8632C11.4978 13.7458 11.7256 13.6109 11.9427 13.462C12.2509 13.2458 12.6479 13.1979 13.0037 13.3365L14.4343 13.9015L15.7641 11.5701L14.2952 10.4358C14.1363 10.3136 14.0543 10.1137 14.0813 9.91668C14.1117 9.70205 14.1245 9.48049 14.1268 9.26251C14.1261 9.14649 14.1184 9.01997 14.107 8.87238C14.0697 8.49289 14.2293 8.12285 14.5268 7.88561L15.7343 6.92603L14.3782 4.60984L12.9541 5.19095C12.6034 5.33356 12.2059 5.29362 11.8918 5.07743C11.6765 4.92747 11.4472 4.79517 11.211 4.68401C10.8726 4.5242 10.6352 4.20562 10.5769 3.83329L10.3574 2.32278L7.66448 2.33802L7.45864 3.86147C7.40799 4.23091 7.17778 4.55214 6.84122 4.71928C6.60281 4.83664 6.37506 4.97153 6.15793 5.12042C5.84977 5.33662 5.45277 5.38457 5.0969 5.24595L3.67337 4.68095L2.34357 7.01234L3.55478 7.95472C3.85494 8.18857 4.01521 8.5533 3.98572 8.93316C3.97243 9.07034 3.96963 9.19692 3.97033 9.31997C3.971 9.4395 3.97875 9.56602 3.99011 9.7101C4.02741 10.0896 3.8713 10.4596 3.57381 10.6968L2.36633 11.6564L3.72243 13.9726L5.14299 13.3915C5.49375 13.2489 5.89125 13.2889 6.20537 13.505C6.42067 13.655 6.64994 13.7873 6.88612 13.8985C7.22453 14.0583 7.46188 14.3769 7.52024 14.7492L7.74324 16.2597ZM9.06975 12.1037C8.97835 12.1042 8.8834 12.1012 8.79194 12.0912C8.04271 12.0216 7.36918 11.6633 6.88778 11.0859C6.40639 10.5085 6.18077 9.77856 6.25036 9.02933C6.3928 7.48514 7.76801 6.34531 9.3122 6.48775C10.6418 6.61382 11.706 7.66954 11.8471 8.99415C11.8657 9.17686 11.8668 9.36319 11.8503 9.54961C11.7143 11.0024 10.4971 12.0956 9.06975 12.1037ZM9.03726 7.60377C8.64703 7.60598 8.27514 7.74168 7.97069 7.99302C7.62426 8.27975 7.40859 8.68527 7.36895 9.1355C7.32579 9.58576 7.46185 10.0209 7.75211 10.3709C8.03884 10.7173 8.44437 10.933 8.8946 10.9726C9.81971 11.0588 10.6455 10.3756 10.7317 9.44695C10.7416 9.33791 10.741 9.22541 10.7298 9.11649C10.6445 8.31891 10.0045 7.68619 9.20605 7.60985C9.14978 7.60665 9.09351 7.60346 9.03726 7.60377Z" fill="#373737"/>
</svg>
