<svg width="19" height="19" viewBox="0 0 19 19" fill="none" xmlns="http://www.w3.org/2000/svg">
<path d="M15.9942 14.514L15.9661 14.5141L15.9379 14.5108C15.843 14.5008 15.7479 14.4802 15.6563 14.442L13.659 13.7467L13.6449 13.7397C13.6026 13.7224 13.5568 13.7121 13.5076 13.7124C13.4619 13.7126 13.4198 13.7199 13.3777 13.7377C13.3321 13.7556 12.8935 13.9233 12.4372 14.0524C12.188 14.1206 11.3245 14.3505 10.6319 14.3545C8.85653 14.3645 7.19332 13.6919 5.94884 12.4614C4.71496 11.2414 4.03077 9.6175 4.02096 7.88433C4.01845 7.44137 4.06515 6.99461 4.15762 6.56166C4.45891 5.13259 5.2707 3.83071 6.43963 2.89244C7.61905 1.94357 9.12079 1.41826 10.6606 1.40955C12.4957 1.39917 14.2118 2.0926 15.4881 3.35805C16.6973 4.55709 17.3636 6.13538 17.3661 7.80883C17.3731 9.05334 17.0108 10.2613 16.3206 11.3023L16.3032 11.3305C16.2892 11.3482 16.2787 11.3658 16.2648 11.3835C16.2474 11.4117 16.237 11.4364 16.23 11.454L16.7931 13.4161C16.8146 13.4827 16.8255 13.553 16.8329 13.6233L16.8332 13.6655C16.8358 14.1295 16.4583 14.5113 15.9942 14.514ZM14.0538 12.6933L15.565 13.2191L15.1239 11.6782C15.0521 11.422 15.1067 11.1334 15.2912 10.8159L15.2947 10.8089C15.3261 10.7595 15.3574 10.7101 15.3923 10.6607C15.9535 9.81021 16.2468 8.82416 16.241 7.80816C16.2368 6.43707 15.688 5.13937 14.6946 4.15357C13.6304 3.10137 12.1998 2.52586 10.667 2.53453C8.04787 2.54935 5.7693 4.34118 5.25231 6.79453C5.17698 7.15004 5.14038 7.51588 5.14243 7.87798C5.15921 10.8451 7.6162 13.2465 10.622 13.2295C11.0615 13.227 11.7111 13.0897 12.1323 12.9713C12.5465 12.8565 12.9569 12.6995 12.9745 12.6923C13.1429 12.6281 13.3185 12.5955 13.5013 12.5944C13.6876 12.5899 13.8741 12.624 14.0538 12.6933Z" fill="#373737"/>
<path d="M3.07175 17.2027C2.87839 17.2038 2.69169 17.1381 2.53984 17.0194L2.52926 17.0124C2.2926 16.8169 2.18185 16.5046 2.23992 16.2055C2.33891 15.6811 2.54362 14.5795 2.61865 14.1713C2.61865 14.1713 2.61865 14.1713 2.61863 14.1678C2.0266 13.2992 1.69037 12.2816 1.63874 11.2342C1.58709 10.1833 1.83081 9.14127 2.33536 8.21731C2.48499 7.94575 2.82545 7.84539 3.10052 7.99501C3.37207 8.14464 3.47244 8.4851 3.32282 8.76017C2.49115 10.2766 2.57534 12.1078 3.55025 13.5402L3.55379 13.5437C3.68498 13.7398 3.80936 13.9747 3.75116 14.2528C3.7375 14.3231 3.5805 15.1572 3.44064 15.9139L4.93846 15.3183C5.20856 15.2113 5.50741 15.2131 5.77874 15.3241C6.41999 15.5701 7.08868 15.6964 7.70742 15.6929C7.71094 15.6929 7.71094 15.6929 7.71445 15.6929C8.60038 15.6878 9.47442 15.4473 10.2383 15C10.5046 14.8439 10.8497 14.9333 11.0094 15.1996C11.1656 15.4659 11.0761 15.8109 10.8098 15.9707C9.87425 16.5209 8.80713 16.8117 7.72433 16.8178C7.72082 16.8178 7.72082 16.8178 7.7173 16.8179C6.95794 16.8222 6.14846 16.6685 5.37333 16.3706L5.35923 16.3636L3.39838 17.1446C3.30018 17.1874 3.19483 17.2091 3.08585 17.2097C3.07527 17.2027 3.07527 17.2027 3.07175 17.2027Z" fill="#373737"/>
</svg>
