<svg width="19" height="19" viewBox="0 0 19 19" fill="none" xmlns="http://www.w3.org/2000/svg">
<path d="M10.6264 9.28562C12.4827 9.27511 14.111 7.51861 14.2606 5.36968C14.3353 4.28994 13.9886 3.28642 13.2918 2.54152C12.5986 1.80715 11.6366 1.40478 10.5819 1.41074C9.52018 1.41675 8.5592 1.82649 7.88134 2.5651C7.19648 3.31079 6.86469 4.32166 6.9482 5.41105C7.11856 7.55817 8.7667 9.29614 10.6264 9.28562ZM8.70832 3.32684C9.17304 2.82147 9.84295 2.53994 10.5882 2.53572C11.3265 2.53155 11.996 2.8055 12.47 3.31259C12.9511 3.82667 13.1906 4.52846 13.1387 5.29517C13.0314 6.84267 11.8787 8.15703 10.6236 8.16413C9.36503 8.17125 8.19749 6.87002 8.07624 5.32381C8.01208 4.54721 8.2366 3.83928 8.70832 3.32684Z" fill="#373737"/>
<path d="M17.9543 15.7059C17.6497 14.0623 16.7137 12.6859 15.2528 11.7239C13.9542 10.8699 12.3133 10.4045 10.6328 10.414C8.95237 10.4236 7.3168 10.9074 6.02795 11.7761C4.57799 12.7546 3.6577 14.1415 3.3717 15.7884C3.30352 16.165 3.39703 16.5371 3.62709 16.81C3.83946 17.062 4.14259 17.2009 4.4836 17.1989L16.8584 17.1289C17.1959 17.127 17.4974 16.9847 17.707 16.7339C17.9339 16.4549 18.0232 16.0817 17.9543 15.7059ZM16.845 16.0005L4.48425 16.0704C4.47712 16.0529 4.47344 16.0248 4.48022 15.979C5.008 12.949 8.04467 11.5502 10.6392 11.5355C13.2336 11.5208 16.2859 12.8852 16.848 15.9091C16.8553 15.9547 16.8519 15.9829 16.845 16.0005Z" fill="#373737"/>
<path d="M4.16415 10.4472L4.15619 9.04097L5.56242 9.03301C5.87179 9.03126 6.12348 8.77671 6.12173 8.46734C6.11998 8.15797 5.86543 7.90628 5.55606 7.90803L4.14983 7.91599L4.14187 6.50976C4.14012 6.20039 3.88557 5.9487 3.5762 5.95045C3.26683 5.9522 3.01514 6.20675 3.01689 6.51612L3.02485 7.92235L1.61862 7.93031C1.30925 7.93206 1.05756 8.18661 1.05931 8.49598C1.06106 8.80535 1.31561 9.05704 1.62498 9.05529L3.03121 9.04733L3.03917 10.4536C3.04092 10.7629 3.29547 11.0146 3.60484 11.0129C3.91421 11.0111 4.1659 10.7566 4.16415 10.4472Z" fill="#373737"/>
</svg>
