<svg width="19" height="19" viewBox="0 0 19 19" fill="none" xmlns="http://www.w3.org/2000/svg">
<path d="M12.3122 9.2761C11.588 9.28019 10.8901 8.9607 10.3383 8.38022C9.80427 7.8137 9.473 7.05267 9.41216 6.24089C9.3475 5.3764 9.60665 4.57688 10.1413 3.99376C10.6759 3.41417 11.4334 3.09347 12.2772 3.0887C13.1139 3.08396 13.8751 3.39958 14.4162 3.97309C14.9644 4.55359 15.2326 5.34662 15.1742 6.20478C15.119 7.01721 14.7999 7.78192 14.2722 8.35445C13.7307 8.94463 13.0364 9.272 12.3122 9.2761ZM12.2836 4.21368C11.7562 4.21666 11.2897 4.40915 10.9717 4.75548C10.6433 5.11242 10.4948 5.59491 10.5367 6.15367C10.5785 6.70891 10.7994 7.22798 11.1602 7.60915C11.4926 7.96235 11.9015 8.1534 12.3058 8.15111C12.7136 8.14881 13.1168 7.94965 13.4453 7.59622C13.8017 7.211 14.0167 6.69297 14.0523 6.13378C14.0879 5.59216 13.9269 5.09736 13.5944 4.74768C13.2725 4.39793 12.8039 4.21073 12.2836 4.21368Z" fill="#373737"/>
<path d="M16.9807 15.4373L7.71369 15.4898C7.40783 15.4915 7.12581 15.356 6.93813 15.118C6.74336 14.8695 6.67114 14.5324 6.74668 14.212C7.03526 13.0221 7.76444 12.0336 8.85043 11.3489C9.81381 10.7423 11.0459 10.4048 12.315 10.3976C13.6088 10.3903 14.8129 10.6999 15.7901 11.2956C16.8872 11.9609 17.6276 12.9481 17.9297 14.1488C18.0089 14.4682 17.9404 14.8061 17.7485 15.0568C17.567 15.2969 17.2866 15.4356 16.9807 15.4373ZM7.87255 14.3639L16.8126 14.3133C16.2208 12.2424 14.0405 11.5164 12.3249 11.5261C10.6164 11.5358 8.44792 12.2864 7.87255 14.3639Z" fill="#373737"/>
<path d="M5.66856 9.45424C4.43108 9.46124 3.33826 8.3178 3.22832 6.90511C3.17148 6.18121 3.3927 5.51198 3.84694 5.01721C4.2977 4.5295 4.93251 4.25871 5.63562 4.25473C6.33522 4.25078 6.97307 4.51787 7.42935 5.00397C7.89269 5.49706 8.12146 6.16375 8.07279 6.88122C7.98584 8.2915 6.90252 9.44726 5.66856 9.45424ZM5.64549 5.37618C5.25877 5.37837 4.91504 5.52094 4.67744 5.77893C4.43284 6.04399 4.31885 6.40323 4.35284 6.81789C4.41726 7.6402 5.01533 8.33292 5.66219 8.32926C6.30906 8.3256 6.90277 7.62613 6.95436 6.80317C6.9802 6.39872 6.8586 6.03378 6.61453 5.77149C6.374 5.51269 6.02868 5.37401 5.64549 5.37618Z" fill="#373737"/>
<path d="M5.9425 14.3746L1.99452 14.397C1.71679 14.3986 1.45944 14.2734 1.28596 14.06C1.10891 13.836 1.04388 13.527 1.11256 13.2383C1.34958 12.2561 1.94969 11.4441 2.84301 10.8835C3.63125 10.3904 4.63517 10.114 5.66875 10.1082C6.55467 10.1031 7.31136 10.2465 7.98105 10.5486C8.26303 10.6771 8.39148 11.0104 8.26299 11.2923C8.13451 11.5743 7.80124 11.7028 7.51926 11.5743C7.00114 11.3417 6.39932 11.229 5.67863 11.2331C4.39545 11.2404 2.7778 11.7839 2.27294 13.2739L5.93616 13.2532C6.24553 13.2514 6.50008 13.5031 6.50183 13.8125C6.50358 14.1219 6.25187 14.3729 5.9425 14.3746Z" fill="#373737"/>
</svg>
